# AST/ASF file generated using VICON BodyLanguage
# -----------------------------------------------
:version 1.10
:name VICON
:units
  mass 1.0
  length 0.45
  angle deg
:documentation
   .ast/.asf automatically generated from VICON data using
   VICON BodyBuilder and BodyLanguage model FoxedUp or BRILLIANT.MOD
:root
   order TX TY TZ RX RY RZ
   axis XYZ
   position 0 0 0  
   orientation 0 0 0 
:bonedata
  begin
     id 1 
     name lhipjoint
     direction 0.61522 -0.761478 0.204097 
     length 2.55743 
     axis 0 0 0  XYZ
  end
  begin
     id 2 
     name lfemur
     direction 0.34202 -0.939693 0  
     length 7.61162  
     axis 0 0 20  XYZ
    dof rx ry rz
    limits (-160.0 20.0)
           (-70.0 70.0)
           (-60.0 70.0)
  end
  begin
     id 3 
     name ltibia
     direction 0.34202 -0.939693 0   
     length 8.12393   
     axis 0 0 20   XYZ
    dof rx
    limits (-10.0 170.0)
  end
  begin
     id 4 
     name lfoot
     direction 0.0841971 -0.23133 0.969225   
     length 2.3572   
     axis -90 7.62852e-016 20   XYZ
    dof rx rz
    limits (-45.0 90.0)
           (-70.0 20.0)
  end
  begin
     id 5 
     name ltoes
     direction 1.53562e-011 -4.22209e-011 1   
     length 1.17993   
     axis -90 7.62852e-016 20   XYZ
    dof rx
    limits (-90.0 20.0)
  end
  begin
     id 6 
     name rhipjoint
     direction -0.625247 -0.75382 0.202044   
     length 2.58341  
     axis 0 0 0  XYZ 
  end
  begin
     id 7 
     name rfemur
     direction -0.34202 -0.939693 0   
     length 7.42147   
     axis 0 0 -20   XYZ
    dof rx ry rz
    limits (-160.0 20.0)
           (-70.0 70.0)
           (-70.0 60.0)
  end
  begin
     id 8 
     name rtibia
     direction -0.34202 -0.939693 0   
     length 8.20893   
     axis 0 0 -20   XYZ
    dof rx
    limits (-10.0 170.0)
 end
 begin
     id 9 
     name rfoot
     direction -0.124331 -0.341598 0.931586   
     length 2.45604  
     axis -90 -7.62852e-016 -20   XYZ
    dof rx rz
    limits (-45.0 90.0)
           (-20.0 70.0)
  end
  begin
     id 10 
     name rtoes
     direction -1.5353e-011 -4.2199e-011 1   
     length 1.21323   
     axis -90 -7.62852e-016 -20   XYZ
    dof rx
    limits (-90.0 20.0)
  end
  begin
     id 11 
     name lowerback
     direction -0.0218484 0.994884 -0.0986303   
     length 2.00523   
     axis 0 0 0   XYZ
    dof rx ry rz
    limits (-20.0 45.0)
           (-30.0 30.0)
           (-30.0 30.0)
  end
  begin
     id 12 
     name upperback
     direction -0.0097305 0.999717 -0.0217111   
     length 2.01352   
     axis 0 0 0   XYZ
    dof rx ry rz
    limits (-20.0 45.0)
           (-30.0 30.0)
           (-30.0 30.0)
  end
  begin
     id 13 
     name thorax
     direction -0.000928262 0.999699 0.0245198   
     length 2.02938   
     axis 0 0 0   XYZ
    dof rx ry rz
    limits (-20.0 45.0)
           (-30.0 30.0)
           (-30.0 30.0)
  end
  begin
     id 14 
     name lowerneck
     direction -0.0307979 0.998024 0.0547665   
     length 1.77263   
     axis 0 0 0   XYZ
    dof rx ry rz
    limits (-20.0 45.0)
           (-30.0 30.0)
           (-30.0 30.0)
  end
  begin
     id 15 
     name upperneck
     direction 0.0531587 0.996611 -0.0627734   
     length 1.77971   
     axis 0 0 0   XYZ
    dof rx ry rz
    limits (-20.0 45.0)
           (-30.0 30.0)
           (-30.0 30.0)
  end
  begin
     id 16
     name head
     direction 0.0213833 0.999404 -0.0271147  
     length 1.78263  
     axis 0 0 0   XYZ
    dof rx ry rz
    limits (-20.0 45.0)
           (-30.0 30.0)
           (-30.0 30.0)
  end
  begin
     id 17 
     name lclavicle
     direction 0.940017 0.332249 -0.0773233  
     length 3.73315  
     axis 0 0 0   XYZ
    dof ry rz
    limits (-20.0 10.0)
           (0.0 20.0)
  end
  begin
     id 18 
     name lhumerus
     direction 1 -4.48944e-011 7.52288e-028   
     length 5.40188   
     axis 180 -30 -90   XYZ
    dof rx ry rz
    limits (-60.0 90.0)
           (-90.0 90.0)
           (-90.0 90.0)
  end
  begin
     id 19
     name lradius
     direction 1 -4.48988e-011 1.48381e-027   
     length 3.68559   
     axis 180 -30 -90   XYZ
    dof rx
    limits (-10.0 170.0)
  end
  begin
     id 20
     name lwrist
     direction 1 -4.48925e-011 2.56952e-028   
     length 1.84279   
     axis -5.12785e-016 90 90   XYZ
    dof ry
    limits (-180.0 0.0)
 end
  begin
     id 21 
     name lhand
     direction 1 -4.49009e-011 5.13905e-028   
     length 0.61753   
     axis -3.27915e-016 90 90   XYZ
    dof rx rz
    limits (-90.0 90.0)
           (-45.0 45.0)
  end
  begin
     id 22 
     name lfingers
     direction 1 -4.49012e-011 1.02781e-027   
     length 0.497868   
     axis -6.5583e-016 90 90   XYZ
    dof rx
    limits (0.0 90.0)
  end
  begin
     id 23
     name lthumb
     direction 0.707107 -6.34987e-011 0.707107   
     length 0.714842   
     axis -90 45 2.85299e-015   XYZ
    dof rx rz
    limits (-45.0 45.0)
           (-45.0 45.0)
  end
  begin
     id 24 
     name rclavicle
     direction -0.9009 0.425937 -0.0834057   
     length 3.27864  
     axis 0 0 0   XYZ 
    dof ry rz
    limits (-10.0 20.0)
           (-20.0 0.0)
  end
  begin
     id 25 
     name rhumerus
     direction -1 -4.48953e-011 -1.03572e-027  
     length 6.1067   
     axis 180 30 90   XYZ
    dof rx ry rz
    limits (-90.0 60.0)
           (-90.0 90.0)
           (-90.0 90.0)
  end
  begin
     id 26 
     name rradius
     direction -1 -4.48975e-011 1.20742e-027   
     length 3.63052   
     axis 180 30 90   XYZ
    dof rx
    limits (-10.0 170.0)
  end
  begin
     id 27 
     name rwrist
     direction -1 -4.49017e-011 2.56952e-028   
     length 1.81526   
     axis -5.12785e-016 -90 -90   XYZ
    dof ry
    limits (-180.0 0.0)
  end
  begin
     id 28
     name rhand
     direction -1 -4.48832e-011 5.13905e-028   
     length 0.583848   
     axis -3.27915e-016 -90 -90   XYZ
    dof rx rz
    limits (-90.0 90.0)
           (-45.0 45.0)
  end
  begin
     id 29
     name rfingers
     direction -1 -4.48729e-011 1.02781e-027   
     length 0.470713   
     axis -6.5583e-016 -90 -90   XYZ
    dof rx
    limits (0.0 90.0)
  end
  begin
     id 30
     name rthumb
     direction -0.707107 -6.34964e-011 0.707107   
     length 0.675852   
     axis -90 -45 -2.85299e-015   XYZ
    dof rx rz
    limits (-45.0 45.0)
           (-45.0 45.0)
  end
:hierarchy
  begin
    root lhipjoint rhipjoint lowerback
    lhipjoint lfemur
    lfemur ltibia
    ltibia lfoot
    lfoot ltoes
    rhipjoint rfemur
    rfemur rtibia
    rtibia rfoot
    rfoot rtoes
    lowerback upperback
    upperback thorax
    thorax lowerneck lclavicle rclavicle
    lowerneck upperneck
    upperneck head
    lclavicle lhumerus
    lhumerus lradius
    lradius lwrist
    lwrist lhand lthumb
    lhand lfingers
    rclavicle rhumerus
    rhumerus rradius
    rradius rwrist
    rwrist rhand rthumb
    rhand rfingers
  end

#!OML:ASF F:\VICON\USERDATA\INSTALL\rory3\rory3.ASF
:FULLY-SPECIFIED
:DEGREES
48
root 0.266841 15.4857 -2.40595 3.53173 -3.46329 5.34437
lowerback 25.9365 0.806783 -4.91634
upperback 5.47381 -0.438937 -1.68814
thorax -8.28348 -0.122221 1.09663
lowerneck -12.4538 -1.52517 -8.05244
upperneck -5.70258 -0.927717 8.50484
head 0.445358 -0.210683 4.24728
rclavicle -9.31803e-015 8.44835e-016
rhumerus -22.9004 -1.20985 -80.4396
rradius 41.4617
rwrist 12.8327
rhand -30.4397 -4.12501
rfingers 7.12502
rthumb -3.74212 -34.0719
lclavicle -9.31803e-015 8.44835e-016
lhumerus -26.8487 1.55158 80.3269
lradius 39.4953
lwrist 5.7874
lhand -29.0143 24.3543
lfingers 7.12502
lthumb -2.36556 54.3209
rfemur -45.4343 -1.59496 12.1414
rtibia 84.5215
rfoot -37.0585 -6.3797
rtoes -12.9755
lfemur -43.6198 11.464 -24.9193
ltibia 81.1025
lfoot -29.5822 -8.85075
ltoes -2.66217
49
root 0.269205 15.4362 -2.4035 3.4236 -3.54531 5.39223
lowerback 26.1555 0.868336 -5.01849
upperback 5.55038 -0.403472 -1.73542
thorax -8.30971 -0.104299 1.09135
lowerneck -12.4361 -1.48734 -7.94237
upperneck -5.88652 -0.883662 8.45311
head 0.375384 -0.191486 4.20756
rclavicle 4.94477e-015 -2.23136e-014
rhumerus -22.8316 -1.32599 -80.5075
rradius 41.5147
rwrist 12.1137
rhand -31.4073 -2.77335
rfingers 7.12502
rthumb -4.6764 -32.7017
lclavicle 4.94477e-015 -2.23136e-014
lhumerus -26.711 1.63948 80.2038
lradius 39.1859
lwrist 5.72828
lhand -29.2141 23.9555
lfingers 7.12502
lthumb -2.55853 53.9199
rfemur -45.848 -1.91476 12.0911
rtibia 85.3726
rfoot -36.947 -6.2018
rtoes -13.3911
lfemur -43.8784 11.6131 -24.9128
ltibia 81.8731
lfoot -29.5712 -9.30612
ltoes -1.87015
50
root 0.273646 15.3733 -2.40306 3.35199 -3.57288 5.42934
lowerback 26.3889 0.887901 -5.07379
upperback 5.60598 -0.408826 -1.75578
thorax -8.36459 -0.105436 1.1021
lowerneck -12.4275 -1.46637 -7.82437
upperneck -6.07084 -0.863707 8.32208
head 0.308098 -0.185499 4.13655
rclavicle -6.4605e-016 -1.37161e-014
rhumerus -22.713 -1.40948 -80.5216
rradius 41.5495
rwrist 11.6289
rhand -31.9178 -1.91838
rfingers 7.12502
rthumb -5.16933 -31.8353
lclavicle -6.4605e-016 -1.37161e-014
lhumerus -26.5016 1.70837 80.1367
lradius 38.8235
lwrist 5.76369
lhand -29.104 24.1623
lfingers 7.12502
lthumb -2.45211 54.128
rfemur -46.3702 -2.32753 12.0457
rtibia 86.2736
rfoot -36.8332 -5.92487
rtoes -13.457
lfemur -44.2374 11.7322 -24.9453
ltibia 82.6627
lfoot -29.5455 -9.58756
ltoes -1.43098
51
root 0.278587 15.3084 -2.40083 3.26314 -3.56485 5.50428
lowerback 26.6257 0.889747 -5.12982
upperback 5.64725 -0.439093 -1.78609
thorax -8.43568 -0.117734 1.11032
lowerneck -12.4191 -1.44113 -7.85654
upperneck -6.19254 -0.820138 8.35662
head 0.263038 -0.162705 4.15721
rclavicle 1.08835e-014 1.09829e-014
rhumerus -22.6138 -1.52433 -80.5019
rradius 41.5102
rwrist 11.4003
rhand -32.1129 -1.31529
rfingers 7.12502
rthumb -5.35775 -31.2276
lclavicle 1.08835e-014 1.09829e-014
lhumerus -26.3634 1.71792 80.0776
lradius 38.5468
lwrist 5.82009
lhand -29.0299 24.5287
lfingers 7.12502
lthumb -2.38054 54.4951
rfemur -46.8396 -2.76149 11.9515
rtibia 87.159
rfoot -36.816 -5.5394
rtoes -13.4716
lfemur -44.5766 11.8287 -25.0476
ltibia 83.4177
lfoot -29.6952 -9.76775
ltoes -1.01778
52
root 0.285115 15.2467 -2.39571 3.13409 -3.58707 5.53849
lowerback 26.8851 0.897588 -5.12743
upperback 5.68123 -0.449093 -1.82548
thorax -8.52804 -0.121273 1.06826
lowerneck -12.3908 -1.42759 -7.83286
upperneck -6.27028 -0.803218 8.34987
head 0.230532 -0.155303 4.15044
rclavicle 7.05686e-015 -9.54166e-015
rhumerus -22.6007 -1.71382 -80.4737
rradius 41.507
rwrist 11.649
rhand -32.118 -0.811958
rfingers 7.12502
rthumb -5.36271 -30.7241
lclavicle 7.05686e-015 -9.54166e-015
lhumerus -26.301 1.80537 79.9915
lradius 38.2651
lwrist 5.71602
lhand -29.1747 24.5582
lfingers 7.12502
lthumb -2.52041 54.5231
rfemur -47.1473 -3.1033 11.8667
rtibia 87.9993
rfoot -36.9159 -5.11328
rtoes -13.5734
lfemur -44.8286 11.9647 -25.1234
ltibia 84.1371
lfoot -29.9666 -9.99007
ltoes -0.00829921
53
root 0.290054 15.1883 -2.38973 3.01324 -3.59188 5.63542
lowerback 27.1109 0.912059 -5.24602
upperback 5.74285 -0.478089 -1.84406
thorax -8.56899 -0.132444 1.12518
lowerneck -12.4867 -1.40377 -7.77836
upperneck -6.33056 -0.770121 8.26488
head 0.222701 -0.138843 4.11058
rclavicle 1.61016e-014 2.0276e-014
rhumerus -22.6058 -1.76242 -80.4559
rradius 41.6968
rwrist 11.875
rhand -32.0221 -1.03549
rfingers 7.12502
rthumb -5.27007 -30.95
lclavicle 1.61016e-014 2.0276e-014
lhumerus -26.1896 2.02652 79.9203
lradius 37.9563
lwrist 5.49768
lhand -29.3526 24.2055
lfingers 7.12502
lthumb -2.69228 54.1683
rfemur -47.3941 -3.42877 11.6912
rtibia 88.7919
rfoot -37.0136 -4.51677
rtoes -13.1983
lfemur -45.0196 12.0612 -25.2878
ltibia 84.7993
lfoot -30.3614 -9.9076
ltoes 0.131457
54
root 0.293961 15.1345 -2.38526 2.94355 -3.5209 5.67285
lowerback 27.3243 0.882638 -5.30292
upperback 5.78041 -0.54261 -1.82485
thorax -8.62894 -0.160405 1.20096
lowerneck -12.5481 -1.36754 -7.79477
upperneck -6.45705 -0.7106 8.19108
head 0.185273 -0.108199 4.08996
rclavicle 1.44119e-014 -2.98177e-016
rhumerus -22.5855 -1.65973 -80.4609
rradius 41.7722
rwrist 11.5342
rhand -32.3251 -0.967117
rfingers 7.12502
rthumb -5.56265 -30.8741
lclavicle 1.44119e-014 -2.98177e-016
lhumerus -26.0363 2.24948 79.8737
lradius 37.5647
lwrist 5.3184
lhand -29.4494 23.9498
lfingers 7.12502
lthumb -2.78569 53.9114
rfemur -47.7357 -3.8078 11.6268
rtibia 89.5387
rfoot -36.9537 -4.34584
rtoes -13.3258
lfemur -45.2447 12.0938 -25.3871
ltibia 85.4402
lfoot -30.715 -9.82915
ltoes 0.144266
55
root 0.294088 15.0723 -2.38503 2.91992 -3.50551 5.61653
lowerback 27.4689 0.874281 -5.28583
upperback 5.82447 -0.554924 -1.8069
thorax -8.65085 -0.166511 1.21559
lowerneck -12.5529 -1.35076 -7.82476
upperneck -6.6214 -0.676438 8.18873
head 0.128681 -0.0902371 4.09638
rclavicle 1.31198e-014 -1.48095e-014
rhumerus -22.4445 -1.64277 -80.5008
rradius 41.7481
rwrist 11.1948
rhand -32.5223 -1.01681
rfingers 7.12502
rthumb -5.75304 -30.9187
lclavicle 1.31198e-014 -1.48095e-014
lhumerus -25.8342 2.32748 79.8326
lradius 37.1321
lwrist 5.31329
lhand -29.8268 23.4054
lfingers 7.12502
lthumb -3.15022 53.3619
rfemur -48.2485 -4.11619 11.7219
rtibia 90.3319
rfoot -36.8055 -4.45559
rtoes -13.8171
lfemur -45.6039 12.1847 -25.3723
ltibia 86.1201
lfoot -31.0007 -9.84249
ltoes 0.474575
56
root 0.295647 15.0032 -2.38071 2.85233 -3.59505 5.59196
lowerback 27.5772 0.915159 -5.26041
upperback 5.90182 -0.504555 -1.84861
thorax -8.62124 -0.145662 1.13767
lowerneck -12.5967 -1.3376 -7.82356
upperneck -6.69378 -0.651151 8.26425
head 0.110819 -0.0757412 4.12473
rclavicle 1.27719e-014 2.5842e-015
rhumerus -22.3237 -1.83068 -80.5587
rradius 41.7553
rwrist 11.1919
rhand -32.4033 -0.923026
rfingers 7.12502
rthumb -5.63809 -30.828
lclavicle 1.27719e-014 2.5842e-015
lhumerus -25.6294 2.28261 79.7768
lradius 36.7582
lwrist 5.43757
lhand -30.5599 22.6686
lfingers 7.12502
lthumb -3.85818 52.6134
rfemur -48.7146 -4.29932 11.7352
rtibia 91.1609
rfoot -36.8263 -4.24402
rtoes -14.0803
lfemur -45.9174 12.3771 -25.4172
ltibia 86.8017
lfoot -31.3921 -9.67768
ltoes 0.553808
57
root 0.301029 14.9431 -2.37172 2.76051 -3.72804 5.58033
lowerback 27.6748 0.950457 -5.23688
upperback 5.95163 -0.462124 -1.88543
thorax -8.61668 -0.127589 1.06878
lowerneck -12.4966 -1.30656 -7.82577
upperneck -6.81897 -0.609582 8.28667
head 0.048523 -0.0564922 4.13443
rclavicle 4.96962e-017 1.00386e-014
rhumerus -22.2959 -1.91375 -80.5862
rradius 41.7265
rwrist 11.1595
rhand -32.637 -0.282339
rfingers 7.12502
rthumb -5.86379 -30.1812
lclavicle 4.96962e-017 1.00386e-014
lhumerus -25.5032 2.34426 79.7006
lradius 36.3737
lwrist 5.21391
lhand -30.6813 23.037
lfingers 7.12502
lthumb -3.97541 52.9796
rfemur -49.041 -4.38619 11.6917
rtibia 91.8843
rfoot -36.9339 -3.90665
rtoes -13.9086
lfemur -46.0995 12.5831 -25.5044
ltibia 87.4085
lfoot -31.9274 -9.43121
ltoes 0.598103
58
root 0.304388 14.8909 -2.36886 2.7221 -3.78505 5.40865
lowerback 27.8087 0.923273 -5.09369
upperback 5.96706 -0.463968 -1.86724
thorax -8.66772 -0.130643 1.00758
lowerneck -12.4602 -1.30998 -7.69156
upperneck -6.88745 -0.632914 8.15651
head 0.0193867 -0.073365 4.05904
rclavicle -2.88238e-015 8.94531e-015
rhumerus -22.2944 -1.81744 -80.6571
rradius 41.7312
rwrist 11.0926
rhand -32.8062 0.0348833
rfingers 7.12502
rthumb -6.02715 -29.8594
lclavicle -2.88238e-015 8.94531e-015
lhumerus -25.3999 2.6219 79.5516
lradius 35.9798
lwrist 4.63651
lhand -29.9612 23.7676
lfingers 7.12502
lthumb -3.28002 53.7221
rfemur -49.3534 -4.4789 11.8923
rtibia 92.4826
rfoot -37.0385 -3.88908
rtoes -14.17
lfemur -46.3383 12.7424 -25.3866
ltibia 87.9494
lfoot -32.3332 -9.27796
ltoes 0.75092
59
root 0.304622 14.8385 -2.36608 2.70507 -3.8627 5.08717
lowerback 27.9005 0.907185 -4.87855
upperback 6.00643 -0.420187 -1.78237
thorax -8.67308 -0.114723 0.964216
lowerneck -12.3895 -1.34536 -7.64677
upperneck -7.01165 -0.686287 8.10805
head -0.0300948 -0.103245 4.02979
rclavicle 5.81445e-015 1.51076e-014
rhumerus -22.2899 -1.79303 -80.7119
rradius 41.7994
rwrist 11.1835
rhand -32.8415 0.125835
rfingers 7.12502
rthumb -6.0612 -29.7675
lclavicle 5.81445e-015 1.51076e-014
lhumerus -25.2745 3.02281 79.4259
lradius 35.6154
lwrist 4.03995
lhand -29.4756 24.1391
lfingers 7.12502
lthumb -2.81106 54.1003
rfemur -49.6347 -4.47761 12.3054
rtibia 93.056
rfoot -37.1013 -4.0154
rtoes -14.4332
lfemur -46.6169 12.9168 -25.0747
ltibia 88.4844
lfoot -32.706 -9.14275
ltoes 0.686163
60
root 0.313225 14.7947 -2.36003 2.66621 -3.77658 5.28212
lowerback 28.0302 0.872877 -4.98129
upperback 6.03162 -0.506717 -1.84529
thorax -8.70397 -0.153049 0.982424
lowerneck -12.2849 -1.35311 -7.78735
upperneck -7.08251 -0.67999 8.26436
head -0.0696486 -0.097562 4.11429
rclavicle -6.95746e-015 -1.41137e-014
rhumerus -22.3207 -1.77589 -80.7432
rradius 41.8182
rwrist 11.3509
rhand -32.9678 -0.233372
rfingers 7.12502
rthumb -6.18311 -30.1231
lclavicle -6.95746e-015 -1.41137e-014
lhumerus -25.1927 3.25321 79.3652
lradius 35.3083
lwrist 3.73987
lhand -29.5404 24.381
lfingers 7.12502
lthumb -2.87365 54.3413
rfemur -49.7932 -4.81183 12.0339
rtibia 93.5844
rfoot -37.2108 -3.90796
rtoes -14.7079
lfemur -46.6932 12.7171 -25.4088
ltibia 88.8758
lfoot -33.1228 -8.70291
ltoes 0.0469746
61
root 0.318569 14.7521 -2.35344 2.70424 -3.75938 5.27319
lowerback 28.0578 0.865354 -4.96941
upperback 6.05014 -0.512666 -1.83384
thorax -8.69642 -0.15635 0.99054
lowerneck -12.2823 -1.34982 -7.88973
upperneck -7.10935 -0.660115 8.35152
head -0.0792918 -0.0844554 4.16734
rclavicle -3.47873e-015 -1.0635e-014
rhumerus -22.2872 -1.72782 -80.7396
rradius 41.7435
rwrist 11.3835
rhand -32.8753 -0.489287
rfingers 7.12502
rthumb -6.09381 -30.3816
lclavicle -3.47873e-015 -1.0635e-014
lhumerus -25.0257 3.4681 79.349
lradius 34.8708
lwrist 3.60401
lhand -29.6372 24.3517
lfingers 7.12502
lthumb -2.96708 54.3108
rfemur -50.0412 -4.9445 12.0109
rtibia 93.9711
rfoot -37.3874 -3.76599
rtoes -14.3037
lfemur -46.8889 12.6339 -25.5182
ltibia 89.2975
lfoot -33.3172 -8.182
ltoes -1.31966
